<svg width="194" height="101" viewBox="0 0 194 101" fill="none" xmlns="http://www.w3.org/2000/svg">
<path d="M33.0943 16.912C42.4346 7.57175 57.5781 7.57176 66.9183 16.912L83.1007 33.0943C92.4409 42.4346 92.4409 57.5781 83.1007 66.9183L66.9183 83.1007C57.5781 92.4409 42.4346 92.4409 33.0943 83.1007L16.912 66.9183C7.57175 57.5781 7.57176 42.4346 16.912 33.0943L33.0943 16.912Z" fill="white"/>
<path fill-rule="evenodd" clip-rule="evenodd" d="M37.2351 13.5537C34.3544 18.4801 32.8264 30.863 49.7599 40.9831C56.9826 37.5179 69.6494 27.1807 62.5353 13.5537C67.2112 16.3092 75.8116 23.9243 72.8057 32.341C72.2185 34.3595 67.8632 40.4558 55.3839 50.0003C61.8702 55.1197 69.9897 62.0208 71.8363 65.4063C74.216 68.9132 75.719 78.0564 62.6931 86.5732C65.5739 81.6468 67.1019 69.2639 50.1683 59.1438C42.9457 62.609 30.2789 72.9462 37.393 86.5732C32.717 83.8178 24.1166 76.2027 27.1226 67.786C27.7098 65.7675 32.0651 59.6712 44.5444 50.1267C38.0581 45.0072 29.9386 38.1062 28.092 34.7207C25.7122 31.2137 24.2093 22.0706 37.2351 13.5537Z" fill="black"/>
<path d="M111.724 63.252C109.876 63.252 108.22 62.952 106.756 62.352C105.292 61.752 104.116 60.864 103.228 59.688C102.364 58.512 101.908 57.096 101.86 55.44H108.412C108.508 56.376 108.832 57.096 109.384 57.6C109.936 58.08 110.656 58.32 111.544 58.32C112.456 58.32 113.176 58.116 113.704 57.708C114.232 57.276 114.496 56.688 114.496 55.944C114.496 55.32 114.28 54.804 113.848 54.396C113.44 53.988 112.924 53.652 112.3 53.388C111.7 53.124 110.836 52.824 109.708 52.488C108.076 51.984 106.744 51.48 105.712 50.976C104.68 50.472 103.792 49.728 103.048 48.744C102.304 47.76 101.932 46.476 101.932 44.892C101.932 42.54 102.784 40.704 104.488 39.384C106.192 38.04 108.412 37.368 111.148 37.368C113.932 37.368 116.176 38.04 117.88 39.384C119.584 40.704 120.496 42.552 120.616 44.928H113.956C113.908 44.112 113.608 43.476 113.056 43.02C112.504 42.54 111.796 42.3 110.932 42.3C110.188 42.3 109.588 42.504 109.132 42.912C108.676 43.296 108.448 43.86 108.448 44.604C108.448 45.42 108.832 46.056 109.6 46.512C110.368 46.968 111.568 47.46 113.2 47.988C114.832 48.54 116.152 49.068 117.16 49.572C118.192 50.076 119.08 50.808 119.824 51.768C120.568 52.728 120.94 53.964 120.94 55.476C120.94 56.916 120.568 58.224 119.824 59.4C119.104 60.576 118.048 61.512 116.656 62.208C115.264 62.904 113.62 63.252 111.724 63.252ZM142.908 37.728V42.66H136.212V63H130.056V42.66H123.36V37.728H142.908ZM167.67 37.728L158.922 54.648V63H152.766V54.648L144.018 37.728H151.002L155.898 48.312L160.758 37.728H167.67ZM185.63 63L180.482 55.26L175.946 63H168.962L177.062 50.148L168.782 37.728H175.946L181.022 45.36L185.486 37.728H192.47L184.442 50.472L192.794 63H185.63Z" fill="white"/>
</svg>
