<svg width="55" height="55" viewBox="0 0 55 55" fill="none" xmlns="http://www.w3.org/2000/svg">
<path d="M18.3708 9.63551C23.4127 4.59361 31.5873 4.59361 36.6292 9.63551L45.3645 18.3708C50.4064 23.4127 50.4064 31.5873 45.3645 36.6292L36.6292 45.3645C31.5873 50.4064 23.4127 50.4064 18.3708 45.3645L9.63553 36.6292C4.59363 31.5873 4.59363 23.4127 9.63553 18.3708L18.3708 9.63551Z" fill="white"/>
<path fill-rule="evenodd" clip-rule="evenodd" d="M20.6061 7.82299C19.051 10.4823 18.2262 17.1667 27.367 22.6295C31.2659 20.759 38.1035 15.1789 34.2632 7.82299C36.7873 9.3104 41.4299 13.4211 39.8072 17.9644C39.4903 19.054 37.1392 22.3449 30.4027 27.4971C33.9041 30.2606 38.2871 33.9859 39.2839 35.8134C40.5685 37.7065 41.3798 42.642 34.3484 47.2395C35.9034 44.5801 36.7283 37.8958 27.5874 32.4329C23.6886 34.3035 16.851 39.8835 20.6913 47.2395C18.1672 45.752 13.5246 41.6414 15.1473 37.098C15.4642 36.0084 17.8153 32.7176 24.5517 27.5653C21.0504 24.8018 16.6674 21.0766 15.6705 19.249C14.386 17.356 13.5747 12.4204 20.6061 7.82299Z" fill="black"/>
</svg>
