<svg width="21" height="21" viewBox="0 0 21 21" fill="none" xmlns="http://www.w3.org/2000/svg">
<path fill-rule="evenodd" clip-rule="evenodd" d="M10.5572 0.25H10.4428C8.2521 0.24999 6.53143 0.24998 5.18802 0.43059C3.81137 0.61568 2.71911 1.00271 1.86091 1.86091C1.00272 2.71911 0.61568 3.81137 0.43059 5.18802C0.24998 6.53144 0.24999 8.25212 0.25 10.4428V10.5572C0.24999 12.7479 0.24998 14.4686 0.43059 15.812C0.61568 17.1886 1.00272 18.2809 1.86091 19.1391C2.71911 19.9973 3.81137 20.3843 5.18802 20.5694C6.53144 20.75 8.2521 20.75 10.4428 20.75H10.5572C12.7479 20.75 14.4686 20.75 15.812 20.5694C17.1886 20.3843 18.2809 19.9973 19.1391 19.1391C19.9973 18.2809 20.3843 17.1886 20.5694 15.812C20.75 14.4686 20.75 12.7479 20.75 10.5572V10.4428C20.75 8.2521 20.75 6.53144 20.5694 5.18802C20.3843 3.81137 19.9973 2.71911 19.1391 1.86091C18.2809 1.00271 17.1886 0.61568 15.812 0.43059C14.4686 0.24998 12.7479 0.24999 10.5572 0.25ZM10.1431 5.11424C9.93 4.75906 9.4693 4.64388 9.1141 4.85699C8.7589 5.0701 8.6438 5.5308 8.8569 5.88599L9.6254 7.16678L6.87536 11.7501H5C4.58579 11.7501 4.25 12.0859 4.25 12.5001C4.25 12.9143 4.58579 13.2501 5 13.2501H5.97536L4.85688 15.1142C4.64377 15.4694 4.75894 15.9301 5.11413 16.1432C5.46931 16.3563 5.93001 16.2412 6.14312 15.886L7.72464 13.2501H11C11.4142 13.2501 11.75 12.9143 11.75 12.5001C11.75 12.0859 11.4142 11.7501 11 11.7501H8.6246L11.1351 7.56596C11.1404 7.55755 11.1455 7.54905 11.1504 7.54045L12.1431 5.88599C12.3562 5.5308 12.2411 5.0701 11.8859 4.85699C11.5307 4.64388 11.07 4.75906 10.8569 5.11424L10.5 5.70904L10.1431 5.11424ZM12.5431 9.1142C12.33 8.7591 11.8693 8.6439 11.5141 8.857C11.1589 9.0701 11.0438 9.5308 11.2569 9.886L14.8569 15.886C15.07 16.2412 15.5307 16.3563 15.8859 16.1432C16.2411 15.9301 16.3562 15.4694 16.1431 15.1142L15.0246 13.2501H16C16.4142 13.2501 16.75 12.9143 16.75 12.5001C16.75 12.0859 16.4142 11.7501 16 11.7501H14.1246L12.5431 9.1142Z" fill="#6C6992"/>
</svg>
