<svg width="48" height="48" viewBox="0 0 48 48" fill="none" xmlns="http://www.w3.org/2000/svg">
<rect width="48" height="48" rx="10" fill="#1B1731"/>
<path fill-rule="evenodd" clip-rule="evenodd" d="M24 15.25C22.067 15.25 20.5 16.817 20.5 18.75V20.3102C21.6177 20.2705 22.7654 20.25 24 20.25C25.2346 20.25 26.3823 20.2705 27.5 20.3102V18.75C27.5 16.817 25.933 15.25 24 15.25ZM18.5 18.75V20.5271C16.9323 21.0069 15.7492 22.3861 15.5245 24.0552C15.3764 25.1556 15.25 26.3118 15.25 27.5C15.25 28.6882 15.3764 29.8444 15.5245 30.9448C15.7961 32.9618 17.4672 34.5555 19.5252 34.6501C20.9536 34.7158 22.4042 34.75 24 34.75C25.5958 34.75 27.0464 34.7158 28.4748 34.6501C30.5328 34.5555 32.2039 32.9618 32.4755 30.9448C32.6236 29.8444 32.75 28.6882 32.75 27.5C32.75 26.3118 32.6236 25.1556 32.4755 24.0552C32.2508 22.3861 31.0677 21.0069 29.5 20.5271V18.75C29.5 15.7124 27.0376 13.25 24 13.25C20.9624 13.25 18.5 15.7124 18.5 18.75ZM29 27.4902C29 26.9379 28.5523 26.4902 28 26.4902C27.4477 26.4902 27 26.9379 27 27.4902V27.5002C27 28.0525 27.4477 28.5002 28 28.5002C28.5523 28.5002 29 28.0525 29 27.5002V27.4902ZM24 26.4902C24.5523 26.4902 25 26.9379 25 27.4902V27.5002C25 28.0525 24.5523 28.5002 24 28.5002C23.4477 28.5002 23 28.0525 23 27.5002V27.4902C23 26.9379 23.4477 26.4902 24 26.4902ZM21 27.4902C21 26.9379 20.5523 26.4902 20 26.4902C19.4477 26.4902 19 26.9379 19 27.4902V27.5002C19 28.0525 19.4477 28.5002 20 28.5002C20.5523 28.5002 21 28.0525 21 27.5002V27.4902Z" fill="url(#paint0_linear_91_116)"/>
<defs>
<linearGradient id="paint0_linear_91_116" x1="24" y1="13.25" x2="24" y2="34.75" gradientUnits="userSpaceOnUse">
<stop stop-color="#E11EFF"/>
<stop offset="1" stop-color="#0038FF"/>
</linearGradient>
</defs>
</svg>
