<svg width="48" height="48" viewBox="0 0 48 48" fill="none" xmlns="http://www.w3.org/2000/svg">
<rect width="48" height="48" rx="10" fill="#1B1731"/>
<path fill-rule="evenodd" clip-rule="evenodd" d="M23.25 19C23.25 15.8244 25.8244 13.25 29 13.25C32.1756 13.25 34.75 15.8244 34.75 19C34.75 22.1756 32.1756 24.75 29 24.75C25.8244 24.75 23.25 22.1756 23.25 19ZM31.4801 16.9238C31.7983 17.189 31.8413 17.6619 31.5762 17.9801L29.0762 20.9801C28.9413 21.142 28.7445 21.2397 28.534 21.2492C28.3235 21.2588 28.1187 21.1793 27.9697 21.0303L26.4697 19.5303C26.1768 19.2374 26.1768 18.7626 26.4697 18.4697C26.7626 18.1768 27.2374 18.1768 27.5303 18.4697L28.4496 19.3889L30.4238 17.0199C30.689 16.7016 31.1619 16.6587 31.4801 16.9238Z" fill="url(#paint0_linear_91_117)"/>
<path fill-rule="evenodd" clip-rule="evenodd" d="M23.5 14C23.5 13.4477 23.0523 13 22.5 13H17C15.3432 13 14 14.3432 14 16V27.0145C14 27.28 14.1056 27.5347 14.2936 27.7223L21.295 34.7094C21.4825 34.8964 21.7365 35.0015 22.0014 35.0015H30C31.6569 35.0015 33 33.6584 33 32.0015V26.5C33 25.9477 32.5523 25.5 32 25.5C31.4477 25.5 31 25.9477 31 26.5V32.0015C31 32.5538 30.5523 33.0015 30 33.0015H23.0014V29.0145C23.0014 27.3576 21.6582 26.0145 20.0014 26.0145H16V16C16 15.4477 16.4477 15 17 15H22.5C23.0523 15 23.5 14.5523 23.5 14Z" fill="url(#paint1_linear_91_117)"/>
<defs>
<linearGradient id="paint0_linear_91_117" x1="29" y1="13.25" x2="29" y2="24.75" gradientUnits="userSpaceOnUse">
<stop stop-color="#E11EFF"/>
<stop offset="1" stop-color="#0038FF"/>
</linearGradient>
<linearGradient id="paint1_linear_91_117" x1="23.5" y1="13" x2="23.5" y2="35.0015" gradientUnits="userSpaceOnUse">
<stop stop-color="#E11EFF"/>
<stop offset="1" stop-color="#0038FF"/>
</linearGradient>
</defs>
</svg>
