<svg width="48" height="48" viewBox="0 0 48 48" fill="none" xmlns="http://www.w3.org/2000/svg">
<rect width="48" height="48" rx="10" fill="#1B1731"/>
<path fill-rule="evenodd" clip-rule="evenodd" d="M24 13.25C24 13.25 23.1614 13.7505 22.9433 13.866C22.507 14.0972 21.8713 14.4123 21.0828 14.7431C19.5014 15.4063 17.327 16.1227 14.9254 16.3608L14.25 16.4277V23.0482C14.25 27.09 16.6995 30.0067 19.0295 31.8672C20.2017 32.8032 21.37 33.4944 22.2437 33.9515C22.6814 34.1805 24 34.75 24 34.75C24 34.75 25.3186 34.1805 25.7563 33.9515C26.63 33.4944 27.7983 32.8032 28.9705 31.8672C31.3004 30.0067 33.75 27.09 33.75 23.0482V16.4277L33.0746 16.3608C30.673 16.1227 28.4986 15.4063 26.9172 14.7431C26.1287 14.4123 25.493 14.0972 25.0567 13.866C24.8386 13.7505 24 13.25 24 13.25ZM29.7074 21.7072L23.0003 28.4143L20.2932 25.7072L21.7074 24.2929L23.0003 25.5858L28.2932 20.293L29.7074 21.7072Z" fill="url(#paint0_linear_91_119)"/>
<defs>
<linearGradient id="paint0_linear_91_119" x1="24" y1="13.25" x2="24" y2="34.75" gradientUnits="userSpaceOnUse">
<stop stop-color="#E11EFF"/>
<stop offset="1" stop-color="#0038FF"/>
</linearGradient>
</defs>
</svg>
