<svg width="25" height="25" viewBox="0 0 25 25" fill="none" xmlns="http://www.w3.org/2000/svg">
<path fill-rule="evenodd" clip-rule="evenodd" d="M12.5 3.74991C13.0523 3.74991 13.5 4.19763 13.5 4.74991V11.2499H15C15.4045 11.2499 15.7691 11.4936 15.9239 11.8672C16.0787 12.2409 15.9931 12.671 15.7071 12.957L13.2071 15.457C12.8166 15.8476 12.1834 15.8476 11.7929 15.457L9.29292 12.957C9.00692 12.671 8.92137 12.2409 9.07615 11.8672C9.23093 11.4936 9.59557 11.2499 10 11.2499H11.5V4.74991C11.5 4.19763 11.9477 3.74991 12.5 3.74991Z" fill="white"/>
<path fill-rule="evenodd" clip-rule="evenodd" d="M4.33576 16.2637C4.88053 16.1729 5.39575 16.5409 5.48655 17.0857L5.70802 18.4145C5.78838 18.8967 6.20557 19.2501 6.69441 19.2501H18.3059C18.7947 19.2501 19.2119 18.8967 19.2923 18.4145L19.5138 17.0857C19.6046 16.5409 20.1198 16.1729 20.6646 16.2637C21.2093 16.3545 21.5773 16.8697 21.4865 17.4145L21.2651 18.7433C21.024 20.1898 19.7724 21.2501 18.3059 21.2501H6.69441C5.22789 21.2501 3.97632 20.1898 3.73523 18.7433L3.51376 17.4145C3.42297 16.8697 3.79099 16.3545 4.33576 16.2637Z" fill="white"/>
</svg>
