<svg width="65" height="65" viewBox="0 0 65 65" fill="none" xmlns="http://www.w3.org/2000/svg">
<g clip-path="url(#clip0_1448_665)">
<path d="M32.5 0C14.6 0 0 14.6 0 32.5C0 50.4 14.6 65 32.5 65C50.4 65 65 50.4 65 32.5C65 14.6 50.4 0 32.5 0ZM43.3 14.3C43.8 14.3 44.1 14.7 44.1 15.1C44.1 15.5 43.7 16 43.3 16C42.8 16 42.5 15.6 42.5 15.2C42.5 14.8 42.8 14.3 43.3 14.3ZM40.7 18.3C41.4 18.3 42 18.9 42 19.7C42 20.5 41.4 21.1 40.7 21.1C40 21.1 39.4 20.5 39.4 19.7C39.4 18.9 40 18.3 40.7 18.3ZM42.7 32.5C42.7 34.1 41.5 35.3 39.9 35.3C38.4 35.3 37.1 34 37.1 32.5C37.1 31 38.3 29.7 39.9 29.7C41.4 29.7 42.7 30.9 42.7 32.5ZM39.4 26.8C39.4 28.4 38.2 29.6 36.6 29.6C35.1 29.6 33.8 28.3 33.8 26.8C33.8 25.3 35 24 36.6 24C38.1 24 39.4 25.2 39.4 26.8ZM33.4 13C34.1 13 34.6 13.6 34.6 14.3C34.6 15 34 15.6 33.4 15.6C32.7 15.6 32.2 15 32.2 14.3C32.2 13.6 32.7 13 33.4 13ZM33.4 19.5C34.3 19.5 35 20.3 35 21.2C35 22.1 34.3 22.9 33.4 22.9C32.5 22.9 31.8 22.1 31.8 21.2C31.8 20.3 32.5 19.5 33.4 19.5ZM30.2 24C31.7 24 33 25.3 33 26.8C33 28.3 31.8 29.6 30.2 29.6C28.7 29.6 27.4 28.3 27.4 26.8C27.4 25.3 28.7 24 30.2 24ZM29.7 32.5C29.7 34.1 28.5 35.3 26.9 35.3C25.4 35.3 24.1 34 24.1 32.5C24.1 31 25.3 29.7 26.9 29.7C28.4 29.7 29.7 30.9 29.7 32.5ZM26.1 18.3C26.8 18.3 27.4 18.9 27.4 19.7C27.4 20.5 26.8 21.1 26.1 21.1C25.4 21.1 24.8 20.5 24.8 19.7C24.7 18.9 25.3 18.3 26.1 18.3ZM23.7 14.3C24.2 14.3 24.5 14.7 24.5 15.1C24.5 15.5 24.2 16 23.7 16C23.2 16 22.9 15.6 22.9 15.2C22.9 14.8 23.3 14.3 23.7 14.3ZM23.7 25.2C24.6 25.2 25.3 26 25.3 26.9C25.3 27.8 24.6 28.6 23.7 28.6C22.8 28.6 22.1 27.8 22.1 26.9C22.1 26 22.8 25.2 23.7 25.2ZM17.9 22.1C18.6 22.1 19.1 22.7 19.1 23.4C19.1 24.1 18.5 24.7 17.9 24.7C17.2 24.7 16.7 24.1 16.7 23.4C16.7 22.6 17.3 22.1 17.9 22.1ZM13.8 33.4C13.3 33.4 13 33 13 32.6C13 32.2 13.4 31.8 13.8 31.8C14.3 31.8 14.6 32.2 14.6 32.6C14.6 33 14.3 33.4 13.8 33.4ZM17.9 42.9C17.2 42.9 16.7 42.3 16.7 41.6C16.7 40.9 17.3 40.3 17.9 40.3C18.6 40.3 19.1 40.9 19.1 41.6C19.2 42.4 18.6 42.9 17.9 42.9ZM19.1 33.9C18.4 33.9 17.8 33.3 17.8 32.5C17.8 31.7 18.4 31.1 19.1 31.1C19.8 31.1 20.4 31.7 20.4 32.5C20.4 33.3 19.8 33.9 19.1 33.9ZM23.7 50.9C23.2 50.9 22.9 50.5 22.9 50.1C22.9 49.7 23.3 49.3 23.7 49.3C24.2 49.3 24.5 49.7 24.5 50.1C24.5 50.5 24.2 50.9 23.7 50.9ZM23.7 40.2C22.8 40.2 22.1 39.4 22.1 38.5C22.1 37.6 22.8 36.8 23.7 36.8C24.6 36.8 25.3 37.6 25.3 38.5C25.3 39.4 24.6 40.2 23.7 40.2ZM26.3 46.7C25.6 46.7 25 46.1 25 45.3C25 44.5 25.6 43.9 26.3 43.9C27 43.9 27.6 44.5 27.6 45.3C27.6 46.1 27 46.7 26.3 46.7ZM27.4 38.4C27.4 36.8 28.6 35.6 30.2 35.6C31.7 35.6 33 36.9 33 38.4C33 40 31.8 41.2 30.2 41.2C28.7 41.2 27.4 40 27.4 38.4ZM33.4 52C32.7 52 32.2 51.4 32.2 50.7C32.2 50 32.8 49.4 33.4 49.4C34.1 49.4 34.6 50 34.6 50.7C34.6 51.4 34.1 52 33.4 52ZM33.4 45.7C32.5 45.7 31.8 44.9 31.8 44C31.8 43.1 32.5 42.3 33.4 42.3C34.3 42.3 35 43.1 35 44C35 44.9 34.3 45.7 33.4 45.7ZM36.8 41.2C35.3 41.2 34 39.9 34 38.4C34 36.8 35.2 35.6 36.8 35.6C38.3 35.6 39.6 36.9 39.6 38.4C39.6 40 38.3 41.2 36.8 41.2ZM40.7 46.7C40 46.7 39.4 46.1 39.4 45.3C39.4 44.5 40 43.9 40.7 43.9C41.4 43.9 42 44.5 42 45.3C42.1 46.1 41.5 46.7 40.7 46.7ZM43.3 50.9C42.8 50.9 42.5 50.5 42.5 50.1C42.5 49.7 42.9 49.3 43.3 49.3C43.8 49.3 44.1 49.7 44.1 50.1C44.1 50.5 43.7 50.9 43.3 50.9ZM43.1 40.2C42.2 40.2 41.5 39.4 41.5 38.5C41.5 37.6 42.2 36.8 43.1 36.8C44 36.8 44.7 37.6 44.7 38.5C44.7 39.4 44 40.2 43.1 40.2ZM43.1 28.6C42.2 28.6 41.5 27.8 41.5 26.9C41.5 26 42.2 25.2 43.1 25.2C44 25.2 44.7 26 44.7 26.9C44.7 27.8 44 28.6 43.1 28.6ZM46.6 32.5C46.6 31.7 47.2 31.1 47.9 31.1C48.6 31.1 49.2 31.7 49.2 32.5C49.2 33.3 48.6 33.9 47.9 33.9C47.2 33.9 46.6 33.3 46.6 32.5ZM48.8 43.1C48.1 43.1 47.6 42.5 47.6 41.8C47.6 41.1 48.2 40.5 48.8 40.5C49.5 40.5 50 41.1 50 41.8C50.1 42.6 49.5 43.1 48.8 43.1ZM48.8 24.6C48.1 24.6 47.6 24 47.6 23.3C47.6 22.6 48.2 22 48.8 22C49.5 22 50 22.6 50 23.3C50.1 24 49.5 24.6 48.8 24.6ZM53.2 33.4C52.7 33.4 52.4 33 52.4 32.6C52.4 32.2 52.8 31.8 53.2 31.8C53.7 31.8 54 32.2 54 32.6C54 33 53.6 33.4 53.2 33.4Z" fill="#0006FF"/>
</g>
<defs>
<clipPath id="clip0_1448_665">
<rect width="65" height="65" fill="white"/>
</clipPath>
</defs>
</svg>
