<svg width="103" height="103" viewBox="0 0 103 103" fill="none" xmlns="http://www.w3.org/2000/svg">
<path d="M51.4308 0.194336C23.3416 0.194336 0.430786 23.1051 0.430786 51.1943C0.430786 79.2836 23.3416 102.194 51.4308 102.194C79.52 102.194 102.431 79.2836 102.431 51.1943C102.431 23.1051 79.52 0.194336 51.4308 0.194336ZM57.08 55.902V77.4005H45.9385V55.902C33.3846 55.2743 23.9692 52.9205 23.9692 49.939C23.9692 46.9574 33.3846 44.4466 45.9385 43.9759V37.2282H30.56V26.8713H72.4585V37.0713H57.08V43.819C69.6339 44.4466 78.8923 46.8005 78.8923 49.782C78.8923 52.9205 69.4769 55.2743 57.08 55.902Z" fill="url(#paint0_linear_1495_53)"/>
<defs>
<linearGradient id="paint0_linear_1495_53" x1="51.4308" y1="0.194336" x2="51.4308" y2="102.194" gradientUnits="userSpaceOnUse">
<stop stop-color="#8BEECA"/>
<stop offset="1" stop-color="#26A17B"/>
</linearGradient>
</defs>
</svg>
