<svg width="38" height="42" viewBox="0 0 38 42" fill="none" xmlns="http://www.w3.org/2000/svg">
<path fill-rule="evenodd" clip-rule="evenodd" d="M18.4045 41.4747L18.4152 41.4797C18.7869 41.6449 19.2122 41.6453 19.5838 41.4803L19.5909 41.477C19.6344 41.4571 19.7416 41.408 19.8056 41.3779C19.9417 41.3139 20.1374 41.22 20.384 41.0967C20.8772 40.8501 21.5756 40.4853 22.4111 40.0058C24.0784 39.0484 26.3083 37.6247 28.5452 35.7606C32.971 32.0723 37.6875 26.4352 37.6875 19.0833C37.6875 8.76242 29.3209 0.395752 19 0.395752C8.67917 0.395752 0.3125 8.76242 0.3125 19.0833C0.3125 26.4352 5.02898 32.0723 9.45473 35.7606C11.6918 37.6247 13.9216 39.0484 15.5889 40.0058C16.4244 40.4853 17.1228 40.8501 17.616 41.0967C17.8565 41.2169 18.2582 41.4059 18.4045 41.4747ZM19 11.4166C14.7658 11.4166 11.3333 14.8491 11.3333 19.0833C11.3333 23.3174 14.7658 26.7499 19 26.7499C23.2341 26.7499 26.6667 23.3174 26.6667 19.0833C26.6667 14.8491 23.2341 11.4166 19 11.4166Z" fill="#B56BFF"/>
</svg>
