<svg width="65" height="65" viewBox="0 0 65 65" fill="none" xmlns="http://www.w3.org/2000/svg">
<g clip-path="url(#clip0_1448_667)">
<path d="M32.5 0C14.6 0 0 14.6 0 32.5C0 50.4 14.6 65 32.5 65C50.4 65 65 50.4 65 32.5C65 14.6 50.4 0 32.5 0ZM53.9 44.2C53.8 44.4 53.7 44.6 53.5 44.8L48.4 49.9C48.2 50 48.1 50.2 48 50.3C47.6 50.8 47 51 46.3 51C42.6 51 38.8 51 35.1 51C31.2 51 27.3 51 23.4 51H12C11.9 51 11.9 51 11.8 51C11.7 51 11.6 51 11.5 51C10.9 50.9 10.4 50.7 10.1 50.1C10 49.9 10 49.7 10 49.5C10 49.1 10.2 48.8 10.5 48.5C11 48 11.5 47.5 12 47C13.1 45.9 14.1 44.9 15.1 43.7C16.1 42.6 17.2 42.2 18.7 42.2C20.1 42.2 21.5 42.2 22.8 42.3C25.8 42.3 28.9 42.3 31.9 42.3H51.8C52 42.3 52.2 42.3 52.4 42.3C53 42.4 53.5 42.6 53.7 43.2C54 43.5 54 43.9 53.9 44.2ZM10 30C10 29.4 10.3 28.9 10.9 28.7C11.2 28.6 11.5 28.6 11.9 28.6C23.3 28.6 34.7 28.6 46.1 28.6C46.9 28.6 47.4 28.8 48 29.4C49.5 30.9 51 32.4 52.5 33.9L53.4 34.8C53.8 35.2 54.1 35.7 54 36.2C54 36.3 54 36.4 53.9 36.5C53.6 37.2 53 37.4 52.3 37.4C46.8 37.4 41.3 37.4 35.9 37.4C35.6 37.4 35.2 37.4 34.9 37.4C31.4 37.4 27.9 37.4 24.4 37.4C22.1 37.4 19.8 37.4 17.6 37.4C16.9 37.4 16.4 37.2 15.9 36.7C15.3 36.1 14.8 35.5 14.2 35C13.1 33.8 11.9 32.7 10.8 31.5C10.6 31.3 10.4 31 10.2 30.8C10.1 30.5 10 30.2 10 30ZM53.3 17.8C51.6 19.5 49.9 21.3 48.2 23C47.6 23.6 46.9 24 46 24C34.7 24 23.3 24 12 24H11.5C10.9 24 10.4 23.7 10.2 23.2C9.9 22.6 10 22.1 10.4 21.6C10.6 21.3 10.9 21.1 11.2 20.8C11.5 20.5 11.8 20.2 12.1 19.9C12.4 19.6 12.8 19.2 13.1 18.9C14.1 17.9 15.1 16.8 16.1 15.8C16.2 15.7 16.3 15.6 16.5 15.5H16.6L16.7 15.4C16.8 15.3 16.8 15.3 16.9 15.2H53C54.2 15.8 54.3 16.7 53.3 17.8Z" fill="url(#paint0_linear_1448_667)"/>
</g>
<defs>
<linearGradient id="paint0_linear_1448_667" x1="43.3692" y1="-11.2707" x2="24.8692" y2="63.2293" gradientUnits="userSpaceOnUse">
<stop stop-color="#12F0B3"/>
<stop offset="1" stop-color="#C44BE5"/>
</linearGradient>
<clipPath id="clip0_1448_667">
<rect width="65" height="65" fill="white"/>
</clipPath>
</defs>
</svg>
