<svg width="65" height="65" viewBox="0 0 65 65" fill="none" xmlns="http://www.w3.org/2000/svg">
<g clip-path="url(#clip0_1495_95)">
<path d="M43.768 19.4161C43.5817 19.323 43.3955 19.2298 43.2092 19.1367C43.442 19.2764 43.6283 19.3695 43.768 19.4161C44.5595 20.0679 45.2579 20.8129 45.9564 21.6045C45.3045 20.8595 44.5595 20.1145 43.768 19.4161Z" fill="url(#paint0_linear_1495_95)"/>
<path d="M42.9764 18.9971C42.7902 18.904 42.6505 18.7643 42.4642 18.6712C42.6039 18.8109 42.7902 18.904 42.9764 18.9971Z" fill="url(#paint1_linear_1495_95)"/>
<path d="M37.1096 43.954C36.4112 44.0937 35.7128 44.1403 35.0144 44.1868C34.2694 44.1868 33.9434 43.6747 33.7572 43.1625C33.571 42.6503 33.571 42.045 34.3625 41.7191C35.6197 41.1603 36.0853 40.0894 35.9922 38.7391C35.9456 37.8079 35.5731 37.3423 34.6419 37.3423C33.571 37.2957 32.5 37.3423 31.4757 37.3423C30.6841 37.3423 30.3116 37.7613 30.2185 38.5529C30.0323 40.136 30.8704 41.0672 32.1741 41.7191C32.4535 41.8588 32.826 41.8588 32.9191 42.3244C33.1519 43.3487 32.4535 44.1403 31.3826 44.2334C30.2651 44.3265 29.1942 43.7678 28.0301 44.0937C28.5889 45.1181 29.101 46.0959 29.7063 47.1668C30.0788 46.5149 29.8926 45.9096 29.8926 45.3509C29.8926 44.9318 30.0323 44.7921 30.4513 44.8853C32.2207 45.1646 33.99 45.1646 35.7593 44.8853C36.2715 44.7921 36.3646 44.9784 36.4112 45.444C36.4112 45.9562 36.3647 46.2821 36.6906 47.0737C36.6906 47.0737 38.3668 44.4662 38.2271 44.1868C38.134 43.7212 37.4356 43.8609 37.1096 43.954Z" fill="url(#paint2_linear_1495_95)"/>
<path d="M34.3159 45.3974C33.3847 45.3509 32.4535 45.3509 31.5222 45.3974C31.2894 45.3974 31.0566 45.3974 31.1497 45.7234C31.2429 46.0493 31.5688 45.9562 31.8482 46.0027C32.3603 46.0493 32.9191 45.9562 33.0122 46.4218C33.0588 46.5615 33.3381 46.7477 33.4778 46.2355C33.5709 45.9096 34.0366 45.9562 34.4556 46.0493C34.6884 46.0959 35.0143 45.9562 35.0143 45.6768C35.0609 45.3509 34.5022 45.3974 34.3159 45.3974Z" fill="url(#paint3_linear_1495_95)"/>
<path d="M32.5 0C14.5738 0 0 14.5738 0 32.5C0 50.4262 14.5738 65 32.5 65C50.4262 65 65 50.4262 65 32.5C65 14.5738 50.4728 0 32.5 0ZM14.8066 14.1547C14.8997 13.3166 15.2256 12.7113 15.8309 12.6648C15.9706 12.6648 16.1569 12.7113 16.2966 12.8044C17.6468 13.4563 18.904 14.2478 20.0681 15.1791C20.5802 15.5516 23.1877 17.414 22.8152 18.1125C22.7686 18.2056 22.6289 18.2987 22.5358 18.3453C21.2321 19.2765 20.0215 20.3474 18.9506 21.5115C18.2987 22.2099 17.74 22.9549 17.1347 23.6999C16.6225 24.3517 16.25 22.4427 16.1569 22.1168C15.8775 21.1855 15.5516 20.2077 15.3653 19.2299C15.1791 18.5781 14.5738 15.8775 14.8066 14.1547ZM26.2142 27.5179C25.9814 28.356 25.2364 28.2629 24.5845 28.356C24.2586 28.4026 23.8861 28.4026 23.6533 28.4026C22.8152 28.3095 21.884 28.6354 21.4649 27.611C21.139 26.7264 21.5115 26.0745 22.1168 25.5158C22.8617 24.8173 23.8861 24.6311 24.7242 25.0501C25.0036 25.1898 25.2364 25.3761 25.4692 25.6089C25.9814 26.1211 26.4004 26.7264 26.2142 27.5179ZM26.9592 32.3138C27.2851 32.5 27.5645 32.7794 27.7973 33.0587C28.0766 33.3381 28.4026 33.7106 28.2629 34.1297C28.0766 34.5953 27.5645 34.409 27.1454 34.4556C25.1433 34.2693 23.1877 33.8037 21.4183 32.6862C20.5337 32.1275 20.2543 30.7772 20.6734 29.8925C20.813 29.5666 21.0924 29.5201 21.3718 29.5666C21.8374 29.6597 22.3496 29.7994 22.8152 29.9857C24.2586 30.591 25.6089 31.3825 26.9592 32.3138ZM23.6999 40.7414C24.0723 41.1139 24.212 40.9742 24.3983 40.5552C24.8173 39.5308 25.3761 38.5996 26.0745 37.7615C29.9857 32.7328 37.2958 33.4312 40.1827 39.1117C40.5086 39.717 40.5086 40.7414 41.1139 40.9277C41.533 41.0208 42.1382 40.1827 42.697 39.7636C45.2113 37.9011 48.0516 37.3424 51.0315 37.6218C50.9384 38.134 50.8918 38.5996 50.8453 38.7393C50.6125 39.5308 50.3331 40.2758 50.0072 41.0208C46.7478 47.7256 39.7636 52.149 32.9656 51.8231C16.2034 50.985 14.1082 39.0652 13.9219 37.6218C17.6003 37.063 20.9062 37.9943 23.6999 40.7414ZM43.0695 29.7529C44.5595 29.1941 44.8854 29.4269 44.8854 31.1032C45.0251 31.755 44.606 32.2672 44.0473 32.6397C42.2314 33.7572 40.2292 34.3159 38.134 34.409C37.808 34.409 37.4355 34.4556 37.2958 34.1297C37.1562 33.8037 37.3424 33.5244 37.5752 33.2915C37.808 33.0122 38.0408 32.6862 38.3668 32.5C39.8102 31.3825 41.3467 30.4047 43.0695 29.7529ZM38.7858 26.6332C39.1583 25.702 39.8567 25.0967 40.8345 24.9105C41.7658 24.7242 42.5573 25.1433 43.1626 25.8417C43.6282 26.4004 43.7679 27.0057 43.4885 27.6576C43.2092 28.356 42.6039 28.356 41.9986 28.4026C41.8123 28.4026 41.6261 28.4026 41.4398 28.4026V28.4491C40.8345 28.356 40.2758 28.356 39.6705 28.2163C38.7858 28.0766 38.4599 27.4713 38.7858 26.6332ZM42.7436 18.8109C42.4176 18.6246 42.0451 18.3918 41.9986 18.0193C41.9054 17.5537 42.5107 16.9484 43.1626 16.4362C43.6748 16.0172 44.187 15.6913 44.4198 15.505C45.5838 14.5272 46.9341 13.5029 48.3309 12.9441C49.4484 12.4785 49.6347 13.1769 49.7744 14.2013C50.1468 17.6468 49.1225 20.8596 47.9585 24.212C46.515 22.1168 44.9319 20.1612 42.7436 18.8109ZM43.3023 13.6891C42.3245 14.8066 41.3933 15.9706 40.4155 17.0881C40.1361 17.4606 39.8102 17.2744 39.4842 17.1812C34.8746 15.8309 30.265 15.7378 25.702 17.2278C25.4226 17.3209 25.1433 17.3675 24.957 17.1347C23.9327 16.0172 22.7221 15.0394 21.8374 13.7822C28.9613 10.1039 36.0852 10.1039 43.3023 13.6891ZM54.5236 38.4599C52.149 47.8653 43.6282 54.4305 34.0831 55.1755C29.4269 55.548 24.7242 54.3374 20.7199 51.8696C16.5759 49.3087 13.2701 45.4907 11.5473 40.9277C9.03295 34.3625 9.87106 26.3539 14.1547 20.6734C14.5738 22.2564 14.8532 23.9327 15.5516 25.4226C16.0172 26.4004 15.8309 27.192 15.4119 28.1232C14.6203 29.7994 14.015 31.5222 13.596 33.3381C13.1304 35.4799 12.8976 37.4821 13.5029 39.6239C13.7822 40.5552 14.1082 41.4398 14.5738 42.3245C15.7844 44.8388 17.6468 46.9807 19.8818 48.6103C23.2808 51.0781 27.4248 52.2421 31.5222 52.6146C31.9878 52.6612 32.4069 52.7077 32.8725 52.7077C33.1519 52.7077 33.3847 52.7077 33.664 52.7077C40.5552 52.7077 47.5394 48.1447 50.7987 41.3933C51.4971 39.9964 51.8231 38.553 51.9162 37.1096C52.0559 35.154 51.6834 33.1984 51.0781 31.2428C50.7056 29.9857 50.1934 28.7751 49.5415 27.611C49.3087 27.1454 49.0759 26.6798 49.2622 26.1211C49.8675 24.212 50.3797 22.303 50.9384 20.394C53.7786 24.1655 55.2221 28.8216 55.1289 33.5244C55.1289 35.154 54.9427 36.8302 54.5236 38.4599Z" fill="url(#paint4_linear_1495_95)"/>
</g>
<defs>
<linearGradient id="paint0_linear_1495_95" x1="32.5" y1="1.79692e-05" x2="48" y2="78" gradientUnits="userSpaceOnUse">
<stop stop-color="#FFA409"/>
<stop offset="1" stop-color="#F00500"/>
</linearGradient>
<linearGradient id="paint1_linear_1495_95" x1="32.5" y1="-5.57341e-05" x2="48.0001" y2="78.0002" gradientUnits="userSpaceOnUse">
<stop stop-color="#FFA409"/>
<stop offset="1" stop-color="#F00500"/>
</linearGradient>
<linearGradient id="paint2_linear_1495_95" x1="32.5" y1="1.98547e-06" x2="48" y2="78" gradientUnits="userSpaceOnUse">
<stop stop-color="#FFA409"/>
<stop offset="1" stop-color="#F00500"/>
</linearGradient>
<linearGradient id="paint3_linear_1495_95" x1="32.5" y1="3.99483e-05" x2="48" y2="78" gradientUnits="userSpaceOnUse">
<stop stop-color="#FFA409"/>
<stop offset="1" stop-color="#F00500"/>
</linearGradient>
<linearGradient id="paint4_linear_1495_95" x1="32.5" y1="4.61936e-07" x2="48" y2="78" gradientUnits="userSpaceOnUse">
<stop stop-color="#FFA409"/>
<stop offset="1" stop-color="#F00500"/>
</linearGradient>
<clipPath id="clip0_1495_95">
<rect width="65" height="65" fill="white"/>
</clipPath>
</defs>
</svg>
