<svg width="65" height="65" viewBox="0 0 65 65" fill="none" xmlns="http://www.w3.org/2000/svg">
<rect width="65" height="65" fill="#1E1E1E"/>
<g id="Landing page STYX" clip-path="url(#clip0_140_127)">
<rect width="1440" height="11450" transform="translate(-140 -2244)" fill="white"/>
<g id="Stake &#38; Earn">
<g id="Group 27">
<g id="Rectangle 4" filter="url(#filter0_d_140_127)">
<rect x="-50" y="-1071" width="1260" height="1166" rx="15" fill="white"/>
</g>
<g id="Group 26">
<g id="Group 13">
<g id="KAVA 1" clip-path="url(#clip1_140_127)">
<path id="Vector" d="M32.5 0C14.6 0 0 14.6 0 32.5C0 50.4 14.6 65 32.5 65C50.4 65 65 50.4 65 32.5C65 14.6 50.4 0 32.5 0ZM25.2 49H19V15H25.2V49ZM50 49H42.2L28.6 32L42.2 15H50L36.6 32L50 49Z" fill="url(#paint0_linear_140_127)"/>
</g>
</g>
</g>
</g>
</g>
</g>
<defs>
<filter id="filter0_d_140_127" x="-65" y="-1086" width="1290" height="1196" filterUnits="userSpaceOnUse" color-interpolation-filters="sRGB">
<feFlood flood-opacity="0" result="BackgroundImageFix"/>
<feColorMatrix in="SourceAlpha" type="matrix" values="0 0 0 0 0 0 0 0 0 0 0 0 0 0 0 0 0 0 127 0" result="hardAlpha"/>
<feMorphology radius="5" operator="erode" in="SourceAlpha" result="effect1_dropShadow_140_127"/>
<feOffset/>
<feGaussianBlur stdDeviation="10"/>
<feComposite in2="hardAlpha" operator="out"/>
<feColorMatrix type="matrix" values="0 0 0 0 0 0 0 0 0 0 0 0 0 0 0 0 0 0 0.18 0"/>
<feBlend mode="normal" in2="BackgroundImageFix" result="effect1_dropShadow_140_127"/>
<feBlend mode="normal" in="SourceGraphic" in2="effect1_dropShadow_140_127" result="shape"/>
</filter>
<linearGradient id="paint0_linear_140_127" x1="13.8124" y1="-6.744" x2="58.8124" y2="87.756" gradientUnits="userSpaceOnUse">
<stop stop-color="#FF444E"/>
<stop offset="1" stop-color="#EF1D28"/>
</linearGradient>
<clipPath id="clip0_140_127">
<rect width="1440" height="11450" fill="white" transform="translate(-140 -2244)"/>
</clipPath>
<clipPath id="clip1_140_127">
<rect width="65" height="65" fill="white"/>
</clipPath>
</defs>
</svg>
