<svg width="65" height="65" viewBox="0 0 65 65" fill="none" xmlns="http://www.w3.org/2000/svg">
<g clip-path="url(#clip0_1495_93)">
<path d="M32.5 0C14.6 0 0 14.6 0 32.5C0 50.4 14.6 65 32.5 65C50.4 65 65 50.4 65 32.5C65 14.6 50.4 0 32.5 0ZM46.5 49L37.3 39.5C34.9 37.1 31 37.1 28.7 39.5L19.5 49H14L25.7 36.8C29.6 32.7 36.2 32.7 40.1 36.8L52 49H46.5ZM40.2 28.2C36.3 32.3 29.7 32.3 25.8 28.2L14 16H19.5L28.7 25.5C31.1 27.9 35 27.9 37.3 25.5L46.5 16H52L40.2 28.2Z" fill="url(#paint0_linear_1495_93)"/>
</g>
<defs>
<linearGradient id="paint0_linear_1495_93" x1="32.5" y1="0" x2="32.5" y2="65" gradientUnits="userSpaceOnUse">
<stop stop-color="#8FD4FF"/>
<stop offset="1" stop-color="#003CFF"/>
</linearGradient>
<clipPath id="clip0_1495_93">
<rect width="65" height="65" fill="white"/>
</clipPath>
</defs>
</svg>
