<svg width="65" height="65" viewBox="0 0 65 65" fill="none" xmlns="http://www.w3.org/2000/svg">
<g clip-path="url(#clip0_1495_89)">
<path d="M32.5 0C14.6 0 0 14.6 0 32.5C0 50.4 14.6 65 32.5 65C50.4 65 65 50.4 65 32.5C65 14.6 50.4 0 32.5 0ZM26.5 55.6C26.5 56.5 25.7 57.1 24.8 56.9C14.7 53.5 7.4 43.9 7.4 32.7C7.4 21.5 14.7 11.9 24.8 8.5C25.6 8.2 26.5 8.9 26.5 9.8V11.3C26.5 11.9 26.1 12.4 25.6 12.6C17.4 15.6 11.6 23.5 11.6 32.7C11.6 41.9 17.4 49.8 25.6 52.8C26.2 53 26.5 53.5 26.5 54.1V55.6ZM35 48.5C35 49.1 34.5 49.5 34 49.5H32C31.4 49.5 31 49 31 48.5V45.1C28.4 44.9 27.2 44.3 25.7 42.9C24.5 41.7 23.7 40.2 23.5 38.3C23.4 37.7 23.9 37.3 24.5 37.3H26.5C27.1 37.3 27.5 37.8 27.6 38.3C27.8 39.3 28.4 39.8 29.2 40.5C30.2 41.4 31.1 41.7 32.9 41.7C34.7 41.7 35.6 41.3 36.6 40.5C37.6 39.8 37.6 38.9 37.6 37.7V37.6C37.6 36.5 37.5 36.1 36.6 35.4C35.8 34.8 35.3 34.7 33.7 34.4C33.4 34.3 33.1 34.3 32.7 34.2C29.6 33.6 27.1 33.1 25.7 31.8C24.4 30.5 23.8 29 23.8 27C23.8 25 24.8 22.9 26.1 21.6C27.4 20.3 28.5 20.1 30.8 19.8V16.4C30.8 15.8 31.3 15.4 31.8 15.4H33.8C34.4 15.4 34.8 15.9 34.8 16.4V19.8C37.1 20.1 38.3 20.8 39.6 22.2C40.7 23.4 41.2 24.2 41.3 25.9C41.3 26.5 40.9 26.9 40.3 26.9H38C37.4 26.9 37 26.4 37 25.9C37 25.2 36.8 25.1 36.2 24.4L36.1 24.3C35.2 23.3 34.3 23.1 32.7 23.1C31.1 23.1 30.2 23.2 29.3 24C28.7 24.5 28.1 25.1 28.1 26.4C28.1 27.6 28.7 28.2 29.6 29C30.3 29.5 31.6 29.7 32.9 30C33.3 30.1 33.8 30.1 34.2 30.2C34.7 30.3 35.2 30.4 35.6 30.5C36.9 30.7 38.1 30.9 38.9 31.4C40.1 32.1 40.7 32.7 41.3 33.6C41.9 34.5 42 36.2 42 37.5C42 39.5 41.4 41.5 40 42.8C38.6 44 37.4 44.8 34.9 45V48.5H35ZM41.1 56.8C40.3 57.1 39.4 56.4 39.4 55.5V54C39.4 53.4 39.8 52.9 40.3 52.7C48.5 49.7 54.3 41.8 54.3 32.6C54.3 23.4 48.5 15.5 40.3 12.5C39.7 12.3 39.4 11.8 39.4 11.2V9.7C39.4 8.8 40.2 8.2 41.1 8.4C51.2 11.8 58.5 21.4 58.5 32.6C58.5 43.8 51.2 53.4 41.1 56.8Z" fill="url(#paint0_linear_1495_89)"/>
</g>
<defs>
<linearGradient id="paint0_linear_1495_89" x1="32.5" y1="0" x2="32.5" y2="65" gradientUnits="userSpaceOnUse">
<stop stop-color="#3998FF"/>
<stop offset="1" stop-color="#2775CA"/>
</linearGradient>
<clipPath id="clip0_1495_89">
<rect width="65" height="65" fill="white"/>
</clipPath>
</defs>
</svg>
