<svg width="46" height="46" viewBox="0 0 46 46" fill="none" xmlns="http://www.w3.org/2000/svg">
<path fill-rule="evenodd" clip-rule="evenodd" d="M28.1407 5.3413C24.3921 5.24723 21.6072 5.24725 17.8586 5.3413L17.7151 5.3449C14.8222 5.41741 12.4419 5.47707 10.5234 5.81077C8.48721 6.16495 6.7823 6.8547 5.33828 8.30241C3.90181 9.74254 3.21402 11.4206 2.86559 13.4246C2.53858 15.3052 2.4891 17.626 2.4292 20.4348L2.42611 20.5794C2.38529 22.4922 2.38531 23.5078 2.42615 25.4205L2.42924 25.565C2.48912 28.3739 2.5386 30.6946 2.86561 32.5754C3.21406 34.5793 3.90185 36.2573 5.3383 37.6975C6.78233 39.1451 8.48723 39.835 10.5234 40.1892C12.4419 40.5228 14.8222 40.5825 17.7152 40.6549L17.8586 40.6585C21.6072 40.7527 24.3921 40.7527 28.1407 40.6585L28.2841 40.6549C31.1771 40.5825 33.5574 40.5227 35.476 40.189C37.5121 39.835 39.217 39.1451 40.661 37.6975C42.0975 36.2573 42.7854 34.5793 43.1337 32.5752C43.4609 30.6946 43.5103 28.3739 43.5701 25.565L43.5732 25.4205C43.614 23.5076 43.614 22.4922 43.5732 20.5794L43.5701 20.435C43.5103 17.6261 43.4607 15.3052 43.1337 13.4246C42.7852 11.4206 42.0975 9.74254 40.661 8.30241C39.8497 7.48886 38.9557 6.91467 37.9669 6.50487C37.8165 6.42274 37.6553 6.36081 37.4872 6.32129C36.8551 6.09844 36.1856 5.93422 35.4758 5.81078C33.5574 5.47707 31.1771 5.41741 28.2841 5.34488L28.1407 5.3413ZM39.636 16.963C39.5988 16.1858 39.5802 15.7972 39.2988 15.642C39.0174 15.4868 38.6713 15.6829 37.9794 16.0749L29.861 20.675C27.3699 22.0864 25.2633 22.9999 22.9993 22.9999C20.7353 22.9999 18.6286 22.0864 16.1377 20.675L8.01987 16.0754C7.32791 15.6833 6.98194 15.4872 6.70049 15.6424C6.41905 15.7976 6.40051 16.1862 6.36345 16.9634C6.31348 18.0109 6.2864 19.2252 6.25573 20.661C6.21605 22.5192 6.21607 23.4806 6.25577 25.3388C6.31961 28.3288 6.36801 30.3586 6.63962 31.9207C6.89538 33.3917 7.32207 34.2655 8.05201 34.9973C8.77436 35.7216 9.66019 36.1555 11.1806 36.42C12.7872 36.6995 14.8825 36.757 17.9548 36.834C21.6392 36.9264 24.3601 36.9264 28.0445 36.834C31.1168 36.757 33.2122 36.6995 34.8188 36.42C36.3391 36.1555 37.225 35.7216 37.9474 34.9973C38.6772 34.2655 39.1041 33.3917 39.3598 31.9207C39.6314 30.3586 39.6798 28.3288 39.7437 25.3388C39.7833 23.4806 39.7833 22.5192 39.7437 20.661C39.713 19.225 39.6858 18.0106 39.636 16.963Z" fill="#B56BFF"/>
</svg>
