<svg width="65" height="65" viewBox="0 0 65 65" fill="none" xmlns="http://www.w3.org/2000/svg">
<g clip-path="url(#clip0_1448_671)">
<path fill-rule="evenodd" clip-rule="evenodd" d="M32.5 65C50.4493 65 65 50.4493 65 32.5C65 14.5507 50.4493 0 32.5 0C14.5507 0 0 14.5507 0 32.5C0 50.4493 14.5507 65 32.5 65ZM30.0305 16.3364C29.554 18.59 29.1758 21.3208 28.9309 24.368C30.2742 25.0083 31.6603 25.7072 33.0731 26.4595C34.4194 25.7454 35.741 25.08 37.0239 24.4679C36.7793 21.3804 36.398 18.6146 35.9163 16.3364C35.4798 14.2721 34.9663 12.6345 34.4117 11.5251C34.1339 10.9694 33.8585 10.572 33.5981 10.32C33.3393 10.0696 33.132 9.9958 32.9734 9.9958C32.8147 9.9958 32.6074 10.0696 32.3488 10.32C32.0884 10.572 31.8129 10.9694 31.5351 11.5251C30.9805 12.6345 30.467 14.2721 30.0305 16.3364ZM20.6265 20.9757C22.7839 21.6757 25.2715 22.6685 27.9523 23.9085C28.2006 20.9776 28.5724 18.3384 29.0385 16.1338C29.4821 14.0355 30.0166 12.3045 30.6257 11.086C30.9297 10.4778 31.265 9.97133 31.6378 9.61049C32.0123 9.24808 32.4605 9.00003 32.9734 9.00003C33.4862 9.00003 33.9345 9.24808 34.309 9.61049C34.6818 9.97133 35.0172 10.4778 35.3211 11.086C35.9303 12.3045 36.4646 14.0355 36.9084 16.1338C37.3797 18.3632 37.7546 21.0371 38.0029 24.0077C39.8339 23.1598 41.5754 22.427 43.1837 21.8236C43.2212 21.3144 43.5065 20.8318 43.9902 20.5573C44.6606 20.177 45.4926 20.3206 45.9949 20.8589C47.8051 20.3029 49.3794 19.9627 50.6186 19.8811C51.3067 19.8357 51.9205 19.8678 52.4249 20.0047C52.9315 20.1422 53.3743 20.3998 53.6306 20.8363C53.8871 21.2728 53.8926 21.7783 53.7605 22.2783C53.629 22.776 53.3503 23.3146 52.9663 23.8775C52.1971 25.0051 50.9391 26.3255 49.3119 27.7522C47.6256 29.2309 45.5206 30.8429 43.1039 32.4958C45.5858 34.1865 47.7447 35.8362 49.467 37.347C51.094 38.7739 52.3517 40.0945 53.1208 41.2223C53.5046 41.7853 53.783 42.324 53.9145 42.8217C54.0466 43.3216 54.0409 43.8272 53.7844 44.2638C53.5279 44.7001 53.0851 44.9576 52.5785 45.095C52.0741 45.2319 51.4603 45.2639 50.7722 45.2183C49.394 45.1273 47.6015 44.7164 45.5309 44.0445C43.3187 43.3266 40.7594 42.3011 38.0008 41.017C37.7526 43.9776 37.3783 46.6431 36.9084 48.8662C36.4646 50.9647 35.9303 52.6955 35.3211 53.9141C35.0172 54.5223 34.6818 55.0288 34.309 55.3896C33.9345 55.7521 33.4862 56 32.9734 56C32.4605 56 32.0123 55.7521 31.6378 55.3896C31.265 55.0288 30.9297 54.5223 30.6257 53.9141C30.078 52.8184 29.5907 51.3084 29.1755 49.4897C28.4499 49.3312 27.9074 48.6951 27.9074 47.9344C27.9074 47.3853 28.19 46.9011 28.6199 46.6148C28.3475 44.9441 28.1225 43.0955 27.9541 41.1132C25.2124 42.3872 22.6687 43.405 20.4685 44.1184C18.3976 44.7901 16.6051 45.2006 15.2269 45.2914C14.5389 45.3368 13.925 45.3047 13.4206 45.1677C12.914 45.0303 12.4713 44.7728 12.2149 44.3363C11.9584 43.8997 11.9529 43.3943 12.085 42.8942C12.2165 42.3965 12.4952 41.858 12.8791 41.295C13.6483 40.1674 14.9064 38.847 16.5336 37.4203C18.2819 35.8872 20.4802 34.211 23.0093 32.4943C21.3351 31.3523 19.8086 30.2293 18.4648 29.1555C17.9974 29.3781 17.4295 29.3763 16.9458 29.1019C16.2755 28.7214 15.9863 27.9415 16.2096 27.2448C14.8147 25.9818 13.728 24.8118 13.0366 23.7977C12.6527 23.2348 12.3742 22.6962 12.2428 22.1984C12.1107 21.6984 12.1164 21.1929 12.3729 20.7564C12.6294 20.32 13.0721 20.0625 13.5788 19.9251C14.0832 19.7883 14.6971 19.7563 15.385 19.8017C16.7633 19.8928 18.5557 20.3037 20.6265 20.9757ZM48.6374 27.0092C46.9123 28.5218 44.7299 30.1853 42.209 31.8938C40.974 31.0731 39.6669 30.2458 38.3003 29.4227C38.2582 27.9229 38.1854 26.4675 38.0853 25.0711C39.982 24.1832 41.7815 23.4194 43.435 22.7953C43.8988 23.5095 44.8573 23.7448 45.6114 23.3169C46.1824 22.9929 46.477 22.3791 46.4138 21.7737C48.1336 21.2516 49.5823 20.9474 50.6864 20.8746C51.315 20.8332 51.803 20.869 52.1552 20.9646C52.5051 21.0596 52.6739 21.1991 52.7532 21.3341C52.8326 21.4692 52.8711 21.6825 52.7799 22.0279C52.6879 22.3755 52.4755 22.8087 52.1248 23.323C51.4245 24.3498 50.2382 25.6056 48.6374 27.0092ZM41.3071 32.4974C40.3547 31.8703 39.3595 31.2392 38.3273 30.6091C38.3378 31.2328 38.3433 31.8635 38.3433 32.5C38.3433 33.1371 38.3378 33.7682 38.3271 34.3926C39.3601 33.7601 40.3553 33.1266 41.3071 32.4974ZM37.1023 25.5383C37.1737 26.5964 37.2292 27.6885 37.2675 28.8083C36.7734 28.5178 36.2721 28.2282 35.7645 27.94C35.218 27.6298 34.6737 27.3267 34.1327 27.0312C35.1408 26.5042 36.1327 26.0059 37.1023 25.5383ZM35.2577 28.8023C34.5238 28.3857 33.7945 27.9824 33.072 27.5931C32.3032 28.0057 31.5265 28.4344 30.7444 28.878C30.03 29.2835 29.329 29.6914 28.6429 30.1004C28.6256 30.8889 28.6167 31.6895 28.6167 32.5C28.6167 33.3116 28.6256 34.1132 28.643 34.9024C29.3785 35.3425 30.1313 35.7817 30.8996 36.2178C31.6287 36.6317 32.3531 37.0323 33.0708 37.4193C33.7424 37.0562 34.4198 36.681 35.1011 36.2945C35.8498 35.8697 36.5838 35.4421 37.3013 35.0133C37.3204 34.1882 37.3301 33.3496 37.3301 32.5C37.3301 31.6518 37.3204 30.8144 37.3013 29.9905C36.6336 29.593 35.952 29.1965 35.2577 28.8023ZM30.2378 28.0158C30.8324 27.6784 31.4243 27.3495 32.0123 27.0294C30.9382 26.4657 29.882 25.9343 28.8513 25.4377C28.7743 26.5618 28.7152 27.7245 28.6755 28.9185C29.1889 28.6164 29.7098 28.3154 30.2378 28.0158ZM27.6035 32.5C27.6035 33.0993 27.6083 33.6932 27.6178 34.2811C26.6468 33.6854 25.7093 33.0889 24.8101 32.4963C25.7098 31.9058 26.6474 31.3119 27.6178 30.719C27.6083 31.3069 27.6035 31.901 27.6035 32.5ZM27.6434 35.4684C26.3382 34.6784 25.0883 33.8847 23.9049 33.0975C21.2705 34.8696 18.9941 36.5974 17.2081 38.1633C15.6073 39.567 14.4211 40.8228 13.7207 41.8494C13.3699 42.3639 13.1575 42.797 13.0656 43.1445C12.9744 43.4901 13.013 43.7034 13.0923 43.8384C13.1716 43.9734 13.3403 44.113 13.6903 44.208C14.0425 44.3036 14.5305 44.3395 15.1591 44.298C16.414 44.2152 18.1138 43.8336 20.151 43.1728C22.3994 42.4437 25.0272 41.3854 27.8702 40.0499C27.763 38.583 27.6863 37.0503 27.6434 35.4684ZM27.6434 29.5333C26.3396 30.3191 25.0902 31.109 23.9062 31.893C22.1635 30.715 20.5803 29.558 19.1956 28.4559C19.5932 27.7041 19.3214 26.7706 18.5674 26.3426C17.9965 26.0185 17.3083 26.0746 16.8063 26.4309C15.4866 25.2279 14.4944 24.147 13.8783 23.2434C13.5276 22.7291 13.3153 22.2958 13.2235 21.9482C13.1322 21.6028 13.1709 21.3895 13.2502 21.2544C13.3296 21.1195 13.4983 20.9799 13.8483 20.885C14.2005 20.7894 14.6885 20.7537 15.3171 20.7952C16.572 20.8782 18.2717 21.2602 20.3088 21.9212C22.5152 22.6371 25.0869 23.6702 27.8687 24.9712C27.7623 26.4322 27.6861 27.9584 27.6434 29.5333ZM30.3929 37.0801C29.8117 36.7501 29.239 36.4186 28.6757 36.0856C28.7155 37.2849 28.7751 38.4527 28.8526 39.5813C29.884 39.0824 30.9403 38.5489 32.0142 37.9833C31.4766 37.6896 30.9359 37.3882 30.3929 37.0801ZM28.9325 40.6517C30.2756 40.0087 31.6607 39.3077 33.0716 38.5539C34.4172 39.2706 35.7388 39.939 37.0221 40.5544C36.7775 43.6329 36.3967 46.3909 35.9163 48.6637C35.4798 50.7279 34.9663 52.3655 34.4117 53.475C34.1339 54.0308 33.8585 54.4281 33.5981 54.68C33.3393 54.9306 33.132 55.0043 32.9734 55.0043C32.8147 55.0043 32.6074 54.9306 32.3488 54.68C32.0884 54.4281 31.8129 54.0308 31.5351 53.475C31.0471 52.4987 30.5909 51.1136 30.191 49.389C30.7561 49.14 31.1496 48.5824 31.1496 47.9344C31.1496 47.0786 30.4631 46.3804 29.6018 46.3427C29.3251 44.6234 29.0984 42.7098 28.9325 40.6517ZM38.3003 35.5801C38.2578 37.0875 38.1846 38.5501 38.0837 39.9527C40.9442 41.299 43.588 42.3655 45.8484 43.0989C47.8856 43.7599 49.5853 44.1419 50.8403 44.2249C51.4688 44.2664 51.9568 44.2307 52.309 44.1351C52.6589 44.0401 52.8277 43.9007 52.907 43.7657C52.9864 43.6307 53.0251 43.4174 52.9339 43.0718C52.8421 42.7243 52.6298 42.291 52.279 41.7768C51.5789 40.7497 50.3928 39.4937 48.7924 38.0898C47.0323 36.5462 44.7961 34.8453 42.2103 33.0995C40.976 33.9228 39.6684 34.7534 38.3003 35.5801ZM34.1282 37.9819C35.1371 38.5117 36.1299 39.0127 37.1009 39.4833C37.1729 38.42 37.2288 37.3223 37.2675 36.1967C36.7226 36.5179 36.1692 36.8382 35.6077 37.1568C35.1124 37.4378 34.619 37.7129 34.1282 37.9819ZM32.9734 35.3877C34.5402 35.3877 35.8103 34.1395 35.8103 32.5996C35.8103 31.0598 34.5402 29.8115 32.9734 29.8115C31.4066 29.8115 30.1365 31.0598 30.1365 32.5996C30.1365 34.1395 31.4066 35.3877 32.9734 35.3877Z" fill="url(#paint0_linear_1448_671)"/>
</g>
<defs>
<linearGradient id="paint0_linear_1448_671" x1="31.9867" y1="0" x2="31.9867" y2="64" gradientUnits="userSpaceOnUse">
<stop stop-color="white"/>
<stop offset="1" stop-color="#8785FF"/>
</linearGradient>
<clipPath id="clip0_1448_671">
<rect width="65" height="65" fill="white"/>
</clipPath>
</defs>
</svg>
