<svg width="65" height="65" viewBox="0 0 65 65" fill="none" xmlns="http://www.w3.org/2000/svg">
<g clip-path="url(#clip0_1448_663)">
<path fill-rule="evenodd" clip-rule="evenodd" d="M32.4961 55.2235L18.2946 35.5655L32.4961 43.8063V43.8082L46.7051 35.5655L32.4961 55.2235ZM32.4961 27.496L46.6957 33.8372L32.4961 42.082L18.2946 33.8372L32.4961 27.496ZM32.4961 9.77673L46.6957 32.9215L32.4961 26.5766L18.2946 32.9215L32.4961 9.77673ZM32.5 0C14.5506 0 0 14.5508 0 32.5C0 50.4492 14.5506 65 32.5 65C50.4492 65 65 50.4492 65 32.5C65 14.5508 50.4492 0 32.5 0Z" fill="url(#paint0_linear_1448_663)"/>
</g>
<defs>
<linearGradient id="paint0_linear_1448_663" x1="0.656789" y1="0" x2="0.656789" y2="63.6864" gradientUnits="userSpaceOnUse">
<stop stop-color="#76D4FF"/>
<stop offset="1" stop-color="#627EEA"/>
</linearGradient>
<clipPath id="clip0_1448_663">
<rect width="65" height="65" fill="white"/>
</clipPath>
</defs>
</svg>
