<svg width="36" height="36" viewBox="0 0 36 36" fill="none" xmlns="http://www.w3.org/2000/svg">
<path fill-rule="evenodd" clip-rule="evenodd" d="M0.0830078 17.2778C0.0830078 7.73063 8.15839 0.083333 17.9997 0.083333C27.841 0.083333 35.9163 7.73063 35.9163 17.2778C35.9163 26.825 27.841 34.4723 17.9997 34.4723C16.8398 34.4738 15.6835 34.3665 14.5446 34.1527C14.1493 34.0783 13.8982 34.0315 13.7113 34.006C13.5719 33.9845 13.4319 34.0365 13.3793 34.0652C13.1884 34.1558 12.9341 34.2907 12.5449 34.4977C10.1587 35.7667 7.37474 36.2167 4.68961 35.7172C4.25602 35.6365 3.89701 35.3333 3.74489 34.9195C3.59277 34.5055 3.67007 34.042 3.94829 33.6998C4.72796 32.7408 5.26406 31.5855 5.50114 30.342C5.56529 30 5.42012 29.5355 4.97386 29.0823C1.94921 26.0108 0.0830078 21.8573 0.0830078 17.2778ZM16.333 13.4304C16.333 12.9277 16.871 12.1667 17.9997 12.1667C19.1283 12.1667 19.6663 12.9277 19.6663 13.4304C19.6663 13.6338 19.601 13.8368 19.46 14.0296C19.27 14.289 19.0257 14.5662 18.7168 14.9037L18.5687 15.065C18.3102 15.346 18.0142 15.6678 17.7447 15.9933C17.1265 16.7405 16.333 17.862 16.333 19.2912V20.0238C16.333 20.9443 17.0792 21.6905 17.9997 21.6905C18.9202 21.6905 19.6663 20.9443 19.6663 20.0238V19.2912C19.6663 19.102 19.7773 18.7655 20.3127 18.1187C20.5215 17.8663 20.747 17.621 21.0042 17.341L21.1757 17.1542C21.4863 16.8148 21.8415 16.4195 22.1498 15.9983C22.6772 15.2778 22.9997 14.3938 22.9997 13.4304C22.9997 10.6962 20.5528 8.83333 17.9997 8.83333C15.4465 8.83333 12.9997 10.6962 12.9997 13.4304C12.9997 14.3509 13.7459 15.097 14.6663 15.097C15.5868 15.097 16.333 14.3509 16.333 13.4304ZM17.9997 23.8333C17.0792 23.8333 16.333 24.5795 16.333 25.5C16.333 26.4205 17.0792 27.1667 17.9997 27.1667H18.0197C18.9402 27.1667 19.6863 26.4205 19.6863 25.5C19.6863 24.5795 18.9402 23.8333 18.0197 23.8333H17.9997Z" fill="#E11EFF"/>
</svg>
