<svg width="65" height="65" viewBox="0 0 65 65" fill="none" xmlns="http://www.w3.org/2000/svg">
<g clip-path="url(#clip0_1448_669)">
<path fill-rule="evenodd" clip-rule="evenodd" d="M32.5 65C50.4493 65 65 50.4493 65 32.5C65 14.5507 50.4493 0 32.5 0C14.5507 0 0 14.5507 0 32.5C0 50.4493 14.5507 65 32.5 65ZM39.7773 25.7572C40.5627 25.3175 41.491 25.3175 42.205 25.7572L50.4882 30.6678C51.2736 31.1075 51.7021 31.9137 51.7021 32.7931V42.5409C51.7021 43.4203 51.2022 44.2265 50.4882 44.6663L42.2764 49.5036C41.491 49.9433 40.5627 49.9433 39.8487 49.5036L31.637 44.6663C30.8515 44.2265 30.423 43.4203 30.423 42.5409V39.1694L34.2076 36.8975V40.2688C34.2076 41.1484 34.7074 41.9546 35.4215 42.3943L39.7773 44.9595C40.5627 45.3993 41.491 45.3993 42.205 44.9595L46.5608 42.321C47.3463 41.8812 47.7748 41.075 47.7748 40.1956V34.9919C47.7748 34.1124 47.2749 33.3062 46.5608 32.8665L42.205 30.3013C41.4196 29.8615 40.4913 29.8615 39.7773 30.3013L34.2076 33.5994L30.423 35.8713L24.8534 39.1694C24.068 39.6093 23.1397 39.6093 22.4256 39.1694L14.2139 34.3322C13.4284 33.8925 13 33.0863 13 32.2068V22.4591C13 21.5796 13.4284 20.7734 14.2139 20.3337L22.4256 15.4965C23.2111 15.0567 24.1394 15.0567 24.8534 15.4965L32.9223 20.3337C33.7078 20.7734 34.1362 21.5796 34.1362 22.4591V25.8305L30.3516 28.1025V24.7311C30.3516 23.8517 29.8518 23.0455 29.1378 22.6057L24.782 20.0405C23.9965 19.6008 23.0682 19.6008 22.3542 20.0405L17.9984 22.6057C17.213 23.0455 16.7845 23.8517 16.7845 24.7311V29.9348C16.7845 30.8143 17.2844 31.6205 17.9984 32.0603L22.4256 34.6987C23.2111 35.1385 24.1394 35.1385 24.8534 34.6987L30.423 31.3273L34.2076 29.1286L39.7773 25.7572Z" fill="url(#paint0_linear_1448_669)"/>
</g>
<defs>
<linearGradient id="paint0_linear_1448_669" x1="32.5" y1="0" x2="32.5" y2="65" gradientUnits="userSpaceOnUse">
<stop stop-color="#7950DD"/>
<stop offset="1" stop-color="#7950DD"/>
</linearGradient>
<clipPath id="clip0_1448_669">
<rect width="65" height="65" fill="white"/>
</clipPath>
</defs>
</svg>
