<svg width="46" height="46" viewBox="0 0 46 46" fill="none" xmlns="http://www.w3.org/2000/svg">
<path d="M10.1911 2.46584C11.2772 2.69032 12.1422 3.42007 12.6796 4.38422L14.3916 7.45558C15.0222 8.58679 15.5529 9.53878 15.8995 10.3663C16.2671 11.2442 16.4854 12.1099 16.3856 13.067C16.2858 14.0241 15.8936 14.8261 15.3527 15.6092C14.8429 16.3475 14.1272 17.1695 13.2768 18.1463L10.7602 21.0371C10.3092 21.5549 10.0837 21.8139 10.0631 22.1376C10.0425 22.4613 10.2273 22.7379 10.5969 23.2909C13.7471 28.0041 17.9928 32.2513 22.7099 35.4042C23.263 35.7739 23.5394 35.9587 23.8631 35.938C24.1869 35.9175 24.446 35.6919 24.9639 35.2409L27.8548 32.7243C28.8315 31.8739 29.6536 31.1582 30.3919 30.6484C31.1748 30.1075 31.977 29.7151 32.9339 29.6155C33.8911 29.5156 34.7569 29.7339 35.6347 30.1015C36.4621 30.4481 37.4142 30.9788 38.5452 31.6092L41.6168 33.3214C42.5809 33.8588 43.3108 34.7238 43.5352 35.81C43.762 36.9074 43.4275 38.0105 42.6884 38.9173C40.0072 42.2068 35.7114 44.3016 31.2049 43.3925C28.435 42.8336 25.7018 41.9027 22.3961 40.0069C15.7541 36.1977 9.79888 30.2392 5.99414 23.605C4.09833 20.2993 3.16738 17.5662 2.6086 14.7961C1.69952 10.2896 3.79412 5.99379 7.08382 3.31255C7.99047 2.5736 9.0936 2.23901 10.1911 2.46584Z" fill="#B56BFF"/>
</svg>
