<svg width="22" height="21" viewBox="0 0 22 21" fill="none" xmlns="http://www.w3.org/2000/svg">
<path fill-rule="evenodd" clip-rule="evenodd" d="M3.5 0.25C1.98122 0.25 0.75 1.48122 0.75 3V18C0.75 19.5188 1.98122 20.75 3.5 20.75H18.5C20.0188 20.75 21.25 19.5188 21.25 18V3C21.25 1.48122 20.0188 0.25 18.5 0.25H3.5ZM11.1563 9.4279L6.4106 4.35043C6.84043 4.19536 7.33554 4.20577 7.79711 4.44324C8.6201 4.86664 9.8511 5.47374 11.1899 6.13401C11.872 6.47039 12.5821 6.82058 13.2805 7.16731L11.1563 9.4279ZM10.127 10.5234L5.34941 5.41178C5.28531 5.59328 5.25 5.79052 5.25 5.99943V15.0006C5.25 15.215 5.28719 15.4171 5.35451 15.6026L10.127 10.5234ZM14.6814 7.86692L12.1827 10.5261L14.6325 13.1472C15.4467 12.7366 16.2047 12.3484 16.834 12.0145C18.0605 11.3636 18.0605 9.6238 16.834 8.973C16.2179 8.6461 15.4776 8.26746 14.6814 7.86692ZM11.1534 11.6216L13.234 13.8476C12.5357 14.1954 11.8267 14.5463 11.1463 14.8831C9.8258 15.5368 8.61322 16.137 7.79711 16.5568C7.34044 16.7918 6.85095 16.8045 6.42433 16.6545L11.1534 11.6216Z" fill="#6C6992"/>
</svg>
