<svg width="48" height="48" viewBox="0 0 48 48" fill="none" xmlns="http://www.w3.org/2000/svg">
<rect width="48" height="48" rx="10" fill="#1B1731"/>
<path fill-rule="evenodd" clip-rule="evenodd" d="M15.6893 20.9742C15.7906 20.9068 15.8955 20.8471 16.0033 20.7951C16.128 16.8932 19.805 14 24 14C28.195 14 31.872 16.8932 31.9967 20.7951C32.1045 20.8471 32.2094 20.9068 32.3107 20.9742L33.9698 22.0788C34.4572 22.4033 34.75 22.95 34.75 23.5355V26.4644C34.75 27.0499 34.4572 27.5966 33.9698 27.921L32.3107 29.0257C32.2105 29.0924 32.1066 29.1516 32 29.2032V31C32 32.6569 30.6569 34 29 34H24C23.4477 34 23 33.5523 23 33C23 32.4477 23.4477 32 24 32H29C29.5523 32 30 31.5523 30 31V29.3171C29.8964 29.2809 29.7944 29.2378 29.6947 29.188C28.8093 28.7455 28.25 27.8407 28.25 26.8509V23.149C28.25 22.1592 28.8093 21.2544 29.6947 20.8119C29.7905 20.764 29.8885 20.7224 29.988 20.687C29.7959 18.1915 27.3255 16 24 16C20.6745 16 18.2041 18.1915 18.012 20.687C18.1115 20.7224 18.2095 20.764 18.3053 20.8119C19.1907 21.2544 19.75 22.1592 19.75 23.149V26.8509C19.75 27.8407 19.1907 28.7455 18.3053 29.188C17.4673 29.6068 16.4692 29.5449 15.6893 29.0257L14.0302 27.921C13.5428 27.5966 13.25 27.0499 13.25 26.4644V23.5355C13.25 22.95 13.5428 22.4033 14.0302 22.0788L15.6893 20.9742Z" fill="url(#paint0_linear_89_79)"/>
<defs>
<linearGradient id="paint0_linear_89_79" x1="24" y1="14" x2="24" y2="34" gradientUnits="userSpaceOnUse">
<stop stop-color="#E11EFF"/>
<stop offset="1" stop-color="#0038FF"/>
</linearGradient>
</defs>
</svg>
