<svg width="48" height="48" viewBox="0 0 48 48" fill="none" xmlns="http://www.w3.org/2000/svg">
<rect width="48" height="48" rx="10" fill="#1B1731"/>
<path fill-rule="evenodd" clip-rule="evenodd" d="M24.5 17.25C24.5 15.7003 25.113 14.2939 26.1098 13.2598C25.3504 13.0897 24.5607 13 23.75 13C17.8129 13 13 17.8129 13 23.75C13 25.4637 13.4398 26.9462 14.1476 28.3184C14.3316 28.6751 14.375 29.0565 14.276 29.3865L13.5653 31.7556C13.1648 33.0905 14.4094 34.3352 15.7443 33.9347L18.1135 33.2239C18.4434 33.1249 18.8249 33.1683 19.1815 33.3523C20.5538 34.0602 22.0363 34.5 23.75 34.5C29.2749 34.5 33.8263 30.3321 34.4316 24.9689C34.551 23.9112 34.6271 22.4129 34.5029 21.1198C33.4512 22.2749 31.9353 23 30.25 23C27.0743 23 24.5 20.4256 24.5 17.25ZM19.1655 22.75C18.6132 22.75 18.1655 23.1977 18.1655 23.75C18.1655 24.3022 18.6132 24.75 19.1655 24.75H19.1745C19.7268 24.75 20.1745 24.3022 20.1745 23.75C20.1745 23.1977 19.7268 22.75 19.1745 22.75H19.1655ZM23.1623 22.75C22.61 22.75 22.1623 23.1977 22.1623 23.75C22.1623 24.3022 22.61 24.75 23.1623 24.75H23.1713C23.7236 24.75 24.1713 24.3022 24.1713 23.75C24.1713 23.1977 23.7236 22.75 23.1713 22.75H23.1623ZM30.25 13C27.9028 13 26 14.9028 26 17.25C26 19.5972 27.9028 21.5 30.25 21.5C32.5972 21.5 34.5 19.5972 34.5 17.25C34.5 14.9028 32.5972 13 30.25 13Z" fill="url(#paint0_linear_89_84)"/>
<defs>
<linearGradient id="paint0_linear_89_84" x1="23.7833" y1="13" x2="23.7833" y2="34.5" gradientUnits="userSpaceOnUse">
<stop stop-color="#E11EFF"/>
<stop offset="1" stop-color="#0038FF"/>
</linearGradient>
</defs>
</svg>
