<svg width="48" height="48" viewBox="0 0 48 48" fill="none" xmlns="http://www.w3.org/2000/svg">
<rect width="48" height="48" rx="10" fill="#1B1731"/>
<path fill-rule="evenodd" clip-rule="evenodd" d="M24 17C24.5523 17 25 17.4477 25 18V23H28C28.5523 23 29 23.4477 29 24C29 24.5523 28.5523 25 28 25H24C23.7348 25 23.4804 24.8946 23.2929 24.7071C23.1054 24.5196 23 24.2652 23 24V18C23 17.4477 23.4477 17 24 17Z" fill="url(#paint0_linear_89_81)"/>
<path fill-rule="evenodd" clip-rule="evenodd" d="M27.2097 13.2904C26.6921 13.1373 26.1485 13.4329 25.9954 13.9504C25.8424 14.468 26.1379 15.0117 26.6555 15.1647C27.0743 15.2885 27.4875 15.4489 27.8907 15.6426C28.3771 15.8764 28.961 15.6714 29.1947 15.1849C29.4284 14.6984 29.2235 14.1146 28.737 13.8808C28.2439 13.644 27.7332 13.4451 27.2097 13.2904ZM31.3394 15.6161C30.9349 15.2588 30.3173 15.2972 29.9601 15.7017C29.6028 16.1063 29.6411 16.7239 30.0457 17.0811C30.2006 17.218 30.3515 17.3598 30.4978 17.5062C30.6441 17.6526 30.7858 17.8035 30.9225 17.9585C31.2795 18.3633 31.8971 18.402 32.3018 18.045C32.7066 17.688 32.7453 17.0704 32.3883 16.6656C32.2247 16.4801 32.0552 16.2996 31.8802 16.1245C31.7053 15.9495 31.5249 15.7799 31.3394 15.6161ZM34.103 19.2294C33.8675 18.7438 33.2829 18.541 32.7972 18.7765C32.3116 19.012 32.1088 19.5966 32.3443 20.0823C32.5442 20.4944 32.7094 20.9172 32.8363 21.3459C32.9895 21.8634 33.5333 22.1587 34.0508 22.0055C34.5683 21.8523 34.8636 21.3085 34.7104 20.791C34.5518 20.2553 34.3472 19.7331 34.103 19.2294ZM23.9997 13.25C18.0628 13.25 13.25 18.0629 13.25 24C13.25 29.9371 18.0628 34.75 23.9997 34.75C29.9367 34.75 34.7495 29.9371 34.7495 24C34.7495 23.4603 34.312 23.0227 33.7722 23.0227C33.2325 23.0227 32.795 23.4603 32.795 24C32.795 28.8576 28.8572 32.7955 23.9997 32.7955C19.1423 32.7955 15.2045 28.8576 15.2045 24C15.2045 19.1424 19.1423 15.2046 23.9997 15.2046C24.5395 15.2046 24.977 14.767 24.977 14.2273C24.977 13.6875 24.5395 13.25 23.9997 13.25Z" fill="url(#paint1_linear_89_81)"/>
<defs>
<linearGradient id="paint0_linear_89_81" x1="26" y1="17" x2="26" y2="25" gradientUnits="userSpaceOnUse">
<stop stop-color="#E11EFF"/>
<stop offset="1" stop-color="#0038FF"/>
</linearGradient>
<linearGradient id="paint1_linear_89_81" x1="24.0004" y1="13.25" x2="24.0004" y2="34.75" gradientUnits="userSpaceOnUse">
<stop stop-color="#E11EFF"/>
<stop offset="1" stop-color="#0038FF"/>
</linearGradient>
</defs>
</svg>
