<svg width="30" height="30" viewBox="0 0 30 30" fill="none" xmlns="http://www.w3.org/2000/svg">
<path d="M25.311 8.30539L24.1392 8.74466C22.8155 9.24077 21.3635 10.2734 19.8935 11.6378C18.4375 12.9892 17.0344 14.5994 15.8035 16.161C14.575 17.7196 13.5332 19.2104 12.7982 20.3124C12.4311 20.8628 11.8455 21.7929 11.6486 22.1056L10.474 24.0625L9.46129 22.0164C8.61463 20.3057 7.65321 19.3564 6.95348 18.8424C6.60061 18.583 6.17195 18.3336 5.88603 18.2531L4.68848 17.9506L5.29481 15.5004L6.50749 15.8066C7.25694 15.9919 7.9174 16.4276 8.42391 16.7998C9.10236 17.2983 9.87261 18.0236 10.6152 19.0661L10.7249 18.9011C11.4857 17.7604 12.5672 16.2125 13.8478 14.5878C15.126 12.966 16.6182 11.2481 18.2022 9.77796C19.7722 8.32076 21.5048 7.03825 23.2695 6.37677L24.4414 5.9375L25.311 8.30539Z" fill="url(#paint0_linear_72_479)"/>
<defs>
<linearGradient id="paint0_linear_72_479" x1="14.9998" y1="5.9375" x2="14.9998" y2="24.0625" gradientUnits="userSpaceOnUse">
<stop stop-color="#E11EFF"/>
<stop offset="1" stop-color="#0038FF"/>
</linearGradient>
</defs>
</svg>
